<?xml version="1.0" encoding="UTF-8"?>
<!DOCTYPE svg PUBLIC "-//W3C//DTD SVG 1.1//EN" "http://www.w3.org/Graphics/SVG/1.1/DTD/svg11.dtd">
<svg version="1.1" xmlns="http://www.w3.org/2000/svg" xmlns:xlink="http://www.w3.org/1999/xlink" x="0" y="0" width="724" height="980" viewBox="0, 0, 724, 980">
  <g id="Background">
    <rect x="0" y="0" width="724" height="980" fill="#FFFFFF"/>
  </g>
  <g id="Layer_2">
    <path d="M528.69,416.409 C528.69,423.605 494.573,567.217 547.718,546.907 C583.342,533.294 591.809,502.389 591.809,502.389 C591.809,502.389 605.188,594.833 497.195,623.719 C389.202,652.606 128.292,676.497 143.262,540.96 C144.595,528.889 155.88,578.965 193.656,549.006 C221.67,526.788 218.088,381.03 219.468,358.413 C220.631,339.356 220.429,339.386 220.429,339.386" fill="#942328" id="Hair3b" display="none"/>
    <g id="Body3" display="none">
      <path d="M478.647,510.609 C478.647,510.609 508.647,623.909 510.057,628.611 C511.468,633.314 565.138,683.792 608.478,720.297 C654.828,759.337 649.863,885.294 651.132,913.854 C652.402,942.415 583.047,961.599 583.047,961.599 L320.29,864.494 C320.29,864.494 353.293,710.267 374.237,683.61 C395.182,656.954 406.606,650.607 406.606,650.607 L377.623,545.146 L397.086,517.959 L478.647,510.609 z" fill="#FCBB82" id="Body"/>
      <path d="M354.702,592.107 C263.742,592.107 217.393,513.818 217.393,415.528 C217.393,317.238 290.908,237.251 381.868,237.251 C472.828,237.251 552.504,305.353 552.504,403.643 C552.504,501.933 445.662,592.107 354.702,592.107 z" fill="#FCBB82" id="Head"/>
    </g>
    <g id="Body2" display="none">
      <path d="M375.65,599.481 C293.424,590.107 235.247,508.127 245.707,416.374 C256.167,324.62 331.303,257.838 413.529,267.212 C495.755,276.586 553.932,358.566 543.472,450.319 C533.012,542.073 457.876,608.855 375.65,599.481 z" fill="#FCBB82" id="Head"/>
      <path d="M366.84,586.846 L383.364,660.008 C383.364,660.008 331.84,674.846 315.84,731.346 C299.84,787.846 283.34,809.846 279.84,840.346 C276.34,870.846 605.547,886.846 628.34,874.346 C651.132,861.846 636.09,739.917 554.34,653.846 C531.237,629.523 479.143,631.116 478.915,630.206 C478.688,629.296 462.84,565.638 462.84,565.638 L366.84,586.846 z" fill="#FCBB82" id="Body"/>
    </g>
    <g id="Body1">
      <path d="M384.537,211.135 C466.573,211.135 508.221,288.279 508.221,387.02 C507.749,439.704 484.373,490.654 448.363,528.596 C450.725,549.401 453.057,570.211 455.606,590.994 C456.213,595.943 456.7,602.721 457.901,607.582 C459.312,612.285 513.925,657.703 555.814,701.496 C597.703,745.288 602.146,879.84 603.415,908.401 C604.684,936.961 578.028,957.906 578.028,957.906 L315.271,860.8 C315.271,860.8 348.274,706.573 369.219,679.917 C390.163,653.26 401.587,646.913 401.587,646.913 L390.041,571.282 C374.061,578.87 356.566,582.802 338.92,583.128 C256.884,583.128 219.468,500.34 219.468,401.599 C219.468,302.858 302.501,211.135 384.537,211.135 z" fill="#FCBB82" id="Body1"/>
    </g>
    <g id="Hair1">
      <path d="M374.747,205.371 C423.618,204.876 465.307,232.077 498.864,265.369 C561.366,328.787 494.846,491.354 493.507,497.069 C492.168,502.783 475.426,502.426 480.784,497.069 C486.141,491.712 490.828,420.059 479.444,378.54 C475.609,364.909 470.248,350.887 459.198,341.484 C449.61,357.807 436.187,372.229 419.057,380.639 C375.156,401.064 220.21,392.143 220.21,392.143 L217.393,384.865 C217.393,384.865 375.749,399.69 411.779,367.492 C416.843,362.968 421.907,358.444 426.972,353.922 C422.608,356.585 418.225,359.218 413.84,361.846 C351.445,399.186 219.506,380.874 219.506,380.874 C219.506,380.874 216.332,320.928 251.061,275.135 C282.62,234.58 322.752,207.893 374.747,205.371 z" fill="#554534" id="Hair1a"/>
      <path d="M662.073,558.155 C676.381,574.907 553.702,579.626 488.231,391.203 C469.083,336.096 454.443,295.939 494.007,260.612 C523.402,234.364 593.212,222.975 624.815,348.664 C644.009,425.006 608.231,495.115 662.073,558.155 z" fill="#554534" id="Hair1b"/>
    </g>
    <g id="Clothes">
      <path d="M514.648,940.59 C514.648,940.59 481.658,718.861 507.24,694.87 C532.823,670.88 541.106,688.263 543.298,685.601 L463.759,607.633 L456.49,586.914 C456.49,586.914 462.205,579.069 457.36,575.055 C451.935,570.559 437.89,581.214 423.443,588.209 C407.41,595.973 392.736,600.94 389.136,602.721 C382.291,606.106 394.696,614.902 394.696,614.902 L400.606,643.702 C400.606,643.702 368.525,665.428 358.347,688.328 C348.17,711.227 310.469,862.056 310.469,862.056 L514.648,940.59 z" fill="#C14767" id="Clothes3"/>
      <path d="M303.435,866.499 C330.857,713.687 374.8,658.51 383.303,659.688 C391.629,660.84 419.978,657.918 516.999,657.918 C518.723,657.918 567.135,691.539 577.617,715.21 C589.352,745.607 610.98,848.828 612.433,904.799 C612.433,908.936 558.521,967.585 558.521,967.585 C558.521,967.585 276.012,1019.311 303.435,866.499 z" fill="#C14767" id="Clothes2" display="none"/>
      <path d="M306.054,867.63 C306.054,867.63 340.647,698.9 364.298,673.838 C387.948,648.775 393.109,636.492 393.109,636.492 L389.136,602.72 L412.312,622.586 L459.989,565.638 L467.273,601.396 C467.273,601.396 560.642,665.628 577.196,702.711 C593.751,739.793 604.346,796.079 608.981,858.986 C613.616,921.894 575.872,967.585 575.872,967.585" fill="#FAA734" id="Clothes" display="none"/>
    </g>
    <g id="Hair2" display="none">
      <path d="M387.107,207.461 C445.505,207.888 485.939,235.148 517.195,282.321 C595.513,403.397 457.594,548.82 457.594,548.82 L444.771,523.975 L472.822,465.468 L492.858,459.858 C492.859,459.858 503.278,432.608 504.88,407.763 C506.483,382.917 489.653,399.748 489.653,399.748 L472.02,410.167 C465.85,388.167 459.304,364.509 445.569,345.915 C412.969,371.557 370.756,379.532 330.311,382.107 C234.54,387.42 224.487,387.486 224.487,387.486 L224.487,377.142 C278.072,372.653 331.97,363.522 382.256,344.006 C329.998,354.105 277.281,361.771 224.487,368.491 C224.487,306.778 255.636,230.666 330.214,214.828 C345.128,211.631 360.18,208.834 375.428,207.875 C379.316,207.631 383.214,207.599 387.107,207.461 z" fill="#942328" id="Hair2a"/>
      <path d="M506.092,390.742 C506.092,390.742 588.605,458.708 640.777,367.768 C672.844,311.871 624.522,246.482 576.504,251.582 C517.328,257.867 498.18,298.663 498.18,298.663 L506.092,390.742 z" fill="#942328" id="Hair2B"/>
    </g>
    <path d="M244.42,347.603 C244.42,347.603 316.922,322.8 408.258,352.556 C499.594,382.313 471.491,371.154 471.491,371.154 L475.21,406.283 C475.21,406.283 476.45,381.486 490.088,383.139 C503.727,384.792 504.967,427.774 497.114,439.759 C489.262,451.744 482.649,438.932 482.649,438.932 C482.649,438.932 479.756,477.781 462.812,503.405 C445.867,529.028 452.893,545.146 452.893,545.146 C452.893,545.146 500.959,494.022 515.299,462.49 C534.306,420.692 536.437,366.56 521.024,319.015 C511.624,290.015 504.042,275.168 483.329,251.003 C462.329,226.503 384.068,189.404 312.329,227.503 C238.347,266.793 226.052,309.321 221.918,330.31 C215.845,361.139 222.976,362.475 222.976,362.475" fill="#942328" id="Hair3a" display="none"/>
    <g id="Headset">
      <g id="Hs4">
        <path d="M486.874,479.084 C474.305,479.084 464.116,468.955 464.116,456.461 C464.116,443.967 474.305,433.839 486.874,433.839 C499.442,433.839 509.631,443.967 509.631,456.461 C509.631,468.955 499.442,479.084 486.874,479.084 z" fill="#000000"/>
        <path d="M486.874,479.084 C474.305,479.084 464.116,468.955 464.116,456.461 C464.116,443.967 474.305,433.839 486.874,433.839 C499.442,433.839 509.631,443.967 509.631,456.461 C509.631,468.955 499.442,479.084 486.874,479.084 z" fill-opacity="0" stroke="#000000" stroke-width="5.5"/>
      </g>
      <path d="M494.985,441.967 C554.805,113.245 218.318,182.556 228.096,321.752" fill-opacity="0" stroke="#000000" stroke-width="5.5" id="Hs3"/>
      <g id="Hs2">
        <path d="M222.916,649.453 C214.058,649.453 206.876,642.098 206.876,633.025 C206.876,623.951 214.058,616.595 222.916,616.595 C231.775,616.595 238.956,623.951 238.956,633.025 C238.956,642.098 231.775,649.453 222.916,649.453 z" fill="#000000"/>
        <path d="M222.916,649.453 C214.058,649.453 206.876,642.098 206.876,633.025 C206.876,623.951 214.058,616.595 222.916,616.595 C231.775,616.595 238.956,623.951 238.956,633.025 C238.956,642.098 231.775,649.453 222.916,649.453 z" fill-opacity="0" stroke="#000000" stroke-width="5.5"/>
      </g>
      <path d="M232.597,647.357 C270.674,704.061 504.762,743.869 496.108,479.084" fill-opacity="0" stroke="#000000" stroke-width="5.5" id="Hs1"/>
    </g>
    <g id="Face">
      <path d="M413.208,460.283 C406.902,460.466 401.627,455.666 401.427,449.562 C401.226,443.458 406.175,438.361 412.481,438.178 C418.786,437.996 424.061,442.796 424.262,448.9 C424.463,455.004 419.514,460.101 413.208,460.283 z" fill="#362F1B" id="Eye2"/>
      <path d="M262.474,431.235 C256.337,431.413 251.203,426.71 251.007,420.73 C250.81,414.751 255.625,409.759 261.762,409.582 C267.898,409.404 273.032,414.107 273.228,420.087 C273.425,426.066 268.61,431.058 262.474,431.235 z" fill="#362F1B" id="Eye1"/>
      <path d="M320.79,474.25 L331.417,429.238 L347.094,434.203 L340.03,476.402 L320.79,474.25 z" fill="#FED9B8" id="Nose"/>
      <path d="M400.489,502.195 C394.107,502.38 388.731,496.369 388.481,488.77 C388.231,481.171 393.202,474.861 399.584,474.676 C405.965,474.491 411.342,480.502 411.592,488.101 C411.841,495.7 406.871,502.01 400.489,502.195 z" fill="#FAAD81" id="Cheek2"/>
      <path d="M268.032,478.487 C261.65,478.672 256.267,472.46 256.009,464.612 C255.751,456.764 260.715,450.252 267.097,450.067 C273.479,449.882 278.861,456.094 279.119,463.942 C279.378,471.79 274.414,478.303 268.032,478.487 z" fill="#FAAD81" id="Cheek1"/>
      <path d="M295.4,509.461 C295.4,509.461 293.129,522.695 304.411,528.053 C309.428,530.181 332.022,533.221 338.459,533.13 C344.896,533.038 352.606,520.593 352.606,520.593" fill="#F05754" id="Lipdown"/>
      <path d="M292.428,505.325 C291.466,504.805 295.967,517.324 322.295,519.987 C322.295,519.987 322.295,519.987 322.295,519.987 C348.623,522.651 354.154,522.491 356.321,518.591 C358.487,514.69 344.604,527.701 340.705,507.668 C333.416,499.52 326.024,514.123 324.323,513.076 C322.621,512.029 322.288,506.009 317.725,502.715 C313.161,499.421 303.495,509.294 302.056,510.706 C300.617,512.119 293.39,505.846 292.428,505.325 z" fill="#DC6959" id="Lipup"/>
    </g>
    <g id="Face2" display="none">
      <path d="M413.208,460.283 C406.902,460.466 401.627,455.666 401.427,449.562 C401.226,443.458 406.175,438.361 412.481,438.178 C418.786,437.996 424.061,442.796 424.262,448.9 C424.463,455.004 419.514,460.101 413.208,460.283 z" fill="#362F1B" id="F2Eye2"/>
      <path d="M262.474,431.236 C256.337,431.413 251.203,426.71 251.007,420.73 C250.81,414.751 255.625,409.759 261.762,409.582 C267.898,409.404 273.032,414.107 273.228,420.087 C273.425,426.066 268.61,431.058 262.474,431.236 z" fill="#362F1B" id="F2Eye1"/>
      <path d="M320.79,474.25 L331.417,429.238 L347.094,434.203 L340.03,476.402 L320.79,474.25 z" fill="#895A3B" id="F2Nose"/>
      <path d="M295.4,509.461 C295.4,509.461 293.129,522.695 304.411,528.053 C309.428,530.181 332.022,533.221 338.459,533.13 C344.896,533.038 352.606,520.593 352.606,520.593" fill="#A85750" id="F2Lipdown"/>
      <path d="M292.428,505.325 C291.466,504.805 295.967,517.324 322.295,519.987 C322.295,519.987 322.295,519.987 322.295,519.987 C348.623,522.651 354.154,522.491 356.321,518.591 C358.487,514.691 344.604,527.701 340.705,507.668 C333.416,499.52 326.024,514.124 324.323,513.076 C322.621,512.029 322.288,506.009 317.725,502.715 C313.161,499.421 303.495,509.294 302.056,510.707 C300.617,512.119 293.39,505.846 292.428,505.325 z" fill="#A54F48" id="F2Lipup"/>
    </g>
  </g>
  <g id="Hole">
    <path d="M724,0 L724,28 L724,28 L724,988 L0,988 L0,60.5 L-0,60.5 L-0,0 L724,0 z M377.185,117.08 C189.315,117.081 37.016,268.005 37.016,454.18 C37.016,640.356 189.315,791.28 377.185,791.28 C565.056,791.28 717.356,640.356 717.356,454.18 C717.356,268.005 565.056,117.081 377.185,117.081 L377.185,117.08 z" fill="#F7F7F0" id="Ghole"/>
  </g>
  <g id="Buttons">
    <g id="B1">
      <path d="M209.971,950.841 C237.033,950.841 258.971,928.903 258.971,901.841 C258.971,874.779 237.033,852.841 209.971,852.841 C182.909,852.841 160.971,874.779 160.971,901.841 C160.971,928.903 182.909,950.841 209.971,950.841 z" fill="#FFFFFF" id="B1a"/>
      <path d="M210.385,872.38 C219.859,872.333 227.349,877.706 232.367,885.411 C235.221,882.425 239.095,881.111 243.078,880.488 C251.366,879.55 259.708,891.567 254.172,901.838 C250.301,908.989 244.102,912.63 236.079,909.134 C233.924,918.697 228.88,927.667 222.552,935.109 L220.338,930.543 L225.18,919.792 L228.639,918.761 C228.639,918.761 230.438,913.753 230.714,909.188 C230.991,904.622 228.086,907.715 228.086,907.715 L225.042,909.629 C223.977,905.587 222.847,901.239 220.476,897.823 C214.849,902.535 207.562,904 200.581,904.473 C184.049,905.449 182.314,905.462 182.314,905.462 L182.314,903.561 C191.563,902.736 200.867,901.058 209.547,897.472 C200.527,899.328 191.427,900.736 182.314,901.971 C182.314,890.631 187.691,876.644 200.564,873.734 C203.138,873.146 205.736,872.632 208.369,872.456 C209.04,872.411 209.713,872.405 210.385,872.38 z" fill="#BA7F8E" id="B1shape"/>
      <path d="M262.302,852.976 C270.586,852.976 277.302,846.26 277.302,837.976 C277.302,829.691 270.586,822.976 262.302,822.976 C254.018,822.976 247.302,829.691 247.302,837.976 C247.302,846.26 254.018,852.976 262.302,852.976 z" fill="#FFFFFF" id="B1b"/>
    </g>
    <g id="B2">
      <path d="M367.051,950.841 C394.113,950.841 416.051,928.903 416.051,901.841 C416.051,874.779 394.113,852.841 367.051,852.841 C339.989,852.841 318.051,874.779 318.051,901.841 C318.051,928.903 339.989,950.841 367.051,950.841 z" fill="#FFFFFF" id="B2a"/>
      <path d="M364.41,864.101 C373.796,864.101 378.561,872.292 378.561,882.775 C378.507,888.369 375.832,893.778 371.712,897.807 C371.982,900.016 372.249,902.225 372.541,904.432 C372.61,904.957 372.666,905.677 372.803,906.193 C372.965,906.692 379.213,911.514 384.006,916.164 C388.798,920.813 389.307,935.099 389.452,938.131 C389.597,941.164 386.547,943.387 386.547,943.387 L356.485,933.077 C356.485,933.077 360.261,916.703 362.657,913.873 C365.053,911.042 366.36,910.369 366.36,910.369 L365.039,902.339 C363.211,903.144 361.209,903.562 359.19,903.596 C349.804,903.596 345.524,894.807 345.524,884.323 C345.524,873.839 355.024,864.101 364.41,864.101 z" fill="#BA7F8E" id="B2shape"/>
      <path d="M419.382,852.976 C427.666,852.976 434.382,846.26 434.382,837.976 C434.382,829.692 427.666,822.976 419.382,822.976 C411.097,822.976 404.382,829.692 404.382,837.976 C404.382,846.26 411.097,852.976 419.382,852.976 z" fill="#FFFFFF" id="B2b"/>
    </g>
    <g id="B3">
      <path d="M518.535,950.841 C545.597,950.841 567.535,928.903 567.535,901.841 C567.535,874.779 545.597,852.841 518.535,852.841 C491.473,852.841 469.535,874.779 469.535,901.841 C469.535,928.903 491.473,950.841 518.535,950.841 z" fill="#FFFFFF" id="B3a"/>
      <path d="M531.746,881.948 C531.871,888.307 533.234,905.888 541.67,907.304 L541.67,932.72 L496.097,932.72 L496.097,907.304 C504.533,905.888 505.897,888.307 506.021,881.948 L509.15,881.948 C509.339,888.561 509.98,895.446 512.712,901.566 C513.955,904.351 515.724,907.225 518.971,907.671 C527.453,906.236 528.674,888.35 528.793,881.948 L531.746,881.948 z" fill="#BA7F8E" id="B3shape"/>
      <path d="M570.866,852.976 C579.151,852.976 585.866,846.26 585.866,837.976 C585.866,829.692 579.151,822.976 570.866,822.976 C562.582,822.976 555.866,829.692 555.866,837.976 C555.866,846.26 562.582,852.976 570.866,852.976 z" fill="#FFFFFF" id="B3b"/>
    </g>
  </g>
</svg>
